<mxfile host="app.diagrams.net" agent="Mozilla/5.0 (Windows NT 10.0; Win64; x64) AppleWebKit/537.36 (KHTML, like Gecko) Chrome/131.0.0.0 Safari/537.36" version="24.8.6">
  <diagram id="6a731a19-8d31-9384-78a2-239565b7b9f0" name="Page-1">
    <mxGraphModel dx="933" dy="936" grid="1" gridSize="10" guides="1" tooltips="1" connect="1" arrows="1" fold="1" page="1" pageScale="1" pageWidth="827" pageHeight="1169" background="none" math="0" shadow="0">
      <root>
        <mxCell id="0" />
        <mxCell id="1" parent="0" />
        <mxCell id="2109" value="Internet" style="shape=mxgraph.cisco.storage.cloud;html=1;dashed=0;strokeColor=#23445D;fillColor=#ffffff;strokeWidth=2;fontFamily=Helvetica;fontSize=24;fontColor=#23445D;align=center;fontStyle=1" parent="1" vertex="1">
          <mxGeometry x="847" y="87" width="186" height="106" as="geometry" />
        </mxCell>
        <mxCell id="2115" value="" style="shape=mxgraph.cisco.switches.workgroup_switch;html=1;dashed=0;fillColor=#10739E;strokeColor=#ffffff;strokeWidth=2;verticalLabelPosition=bottom;verticalAlign=top;fontFamily=Helvetica;fontSize=36;fontColor=#FFB366" parent="1" vertex="1">
          <mxGeometry x="1290" y="450" width="101" height="50" as="geometry" />
        </mxCell>
        <mxCell id="2138" value="" style="shape=mxgraph.cisco.routers.router;html=1;dashed=0;fillColor=#10739E;strokeColor=#ffffff;strokeWidth=2;verticalLabelPosition=bottom;verticalAlign=top;fontFamily=Helvetica;fontSize=36;fontColor=#FFB366" parent="1" vertex="1">
          <mxGeometry x="1020" y="122" width="78" height="53" as="geometry" />
        </mxCell>
        <mxCell id="aqWlvqh8Th-LgJ-SvnBo-2257" value="" style="shape=mxgraph.cisco.computers_and_peripherals.workstation;sketch=0;html=1;pointerEvents=1;dashed=0;fillColor=#036897;strokeColor=#ffffff;strokeWidth=2;verticalLabelPosition=bottom;verticalAlign=top;align=center;outlineConnect=0;" parent="1" vertex="1">
          <mxGeometry x="908" y="600" width="83" height="62" as="geometry" />
        </mxCell>
        <mxCell id="aqWlvqh8Th-LgJ-SvnBo-2258" value="" style="shape=mxgraph.cisco.computers_and_peripherals.laptop;sketch=0;html=1;pointerEvents=1;dashed=0;fillColor=#036897;strokeColor=#ffffff;strokeWidth=2;verticalLabelPosition=bottom;verticalAlign=top;align=center;outlineConnect=0;" parent="1" vertex="1">
          <mxGeometry x="1360" y="860" width="90" height="61" as="geometry" />
        </mxCell>
        <mxCell id="aqWlvqh8Th-LgJ-SvnBo-2260" value="" style="shape=mxgraph.cisco.security.firewall;sketch=0;html=1;pointerEvents=1;dashed=0;fillColor=#036897;strokeColor=#ffffff;strokeWidth=2;verticalLabelPosition=bottom;verticalAlign=top;align=center;outlineConnect=0;" parent="1" vertex="1">
          <mxGeometry x="1230" y="99.25" width="50" height="98.5" as="geometry" />
        </mxCell>
        <mxCell id="aqWlvqh8Th-LgJ-SvnBo-2263" value="" style="shape=mxgraph.cisco.servers.fileserver;sketch=0;html=1;pointerEvents=1;dashed=0;fillColor=#036897;strokeColor=#ffffff;strokeWidth=2;verticalLabelPosition=bottom;verticalAlign=top;align=center;outlineConnect=0;" parent="1" vertex="1">
          <mxGeometry x="1550" y="420" width="59" height="110" as="geometry" />
        </mxCell>
        <mxCell id="aqWlvqh8Th-LgJ-SvnBo-2264" value="" style="shape=mxgraph.cisco.routers.wireless_router;sketch=0;html=1;pointerEvents=1;dashed=0;fillColor=#036897;strokeColor=#ffffff;strokeWidth=2;verticalLabelPosition=bottom;verticalAlign=top;align=center;outlineConnect=0;" parent="1" vertex="1">
          <mxGeometry x="980" y="265" width="78" height="77" as="geometry" />
        </mxCell>
        <mxCell id="aqWlvqh8Th-LgJ-SvnBo-2266" value="" style="shape=mxgraph.cisco.computers_and_peripherals.laptop;sketch=0;html=1;pointerEvents=1;dashed=0;fillColor=#036897;strokeColor=#ffffff;strokeWidth=2;verticalLabelPosition=bottom;verticalAlign=top;align=center;outlineConnect=0;" parent="1" vertex="1">
          <mxGeometry x="1460" y="755.5" width="90" height="61" as="geometry" />
        </mxCell>
        <mxCell id="aqWlvqh8Th-LgJ-SvnBo-2267" value="" style="shape=mxgraph.cisco.computers_and_peripherals.workstation;sketch=0;html=1;pointerEvents=1;dashed=0;fillColor=#036897;strokeColor=#ffffff;strokeWidth=2;verticalLabelPosition=bottom;verticalAlign=top;align=center;outlineConnect=0;direction=east;" parent="1" vertex="1">
          <mxGeometry x="930" y="820" width="83" height="60" as="geometry" />
        </mxCell>
        <mxCell id="aqWlvqh8Th-LgJ-SvnBo-2268" value="" style="shape=mxgraph.cisco.computers_and_peripherals.printer;sketch=0;html=1;pointerEvents=1;dashed=0;fillColor=#036897;strokeColor=#ffffff;strokeWidth=2;verticalLabelPosition=bottom;verticalAlign=top;align=center;outlineConnect=0;" parent="1" vertex="1">
          <mxGeometry x="1515" y="560" width="91" height="34" as="geometry" />
        </mxCell>
        <mxCell id="aqWlvqh8Th-LgJ-SvnBo-2269" value="" style="shape=mxgraph.cisco.modems_and_phones.ip_phone;sketch=0;html=1;pointerEvents=1;dashed=0;fillColor=#036897;strokeColor=#ffffff;strokeWidth=2;verticalLabelPosition=bottom;verticalAlign=top;align=center;outlineConnect=0;" parent="1" vertex="1">
          <mxGeometry x="1020" y="761" width="90" height="50" as="geometry" />
        </mxCell>
        <mxCell id="aqWlvqh8Th-LgJ-SvnBo-2270" value="" style="shape=mxgraph.cisco.modems_and_phones.ip_phone;sketch=0;html=1;pointerEvents=1;dashed=0;fillColor=#036897;strokeColor=#ffffff;strokeWidth=2;verticalLabelPosition=bottom;verticalAlign=top;align=center;outlineConnect=0;" parent="1" vertex="1">
          <mxGeometry x="1270" y="745.5" width="90" height="50" as="geometry" />
        </mxCell>
        <mxCell id="aqWlvqh8Th-LgJ-SvnBo-2271" value="" style="shape=mxgraph.cisco.modems_and_phones.ip_phone;sketch=0;html=1;pointerEvents=1;dashed=0;fillColor=#036897;strokeColor=#ffffff;strokeWidth=2;verticalLabelPosition=bottom;verticalAlign=top;align=center;outlineConnect=0;" parent="1" vertex="1">
          <mxGeometry x="890" y="695.5" width="90" height="50" as="geometry" />
        </mxCell>
        <mxCell id="aqWlvqh8Th-LgJ-SvnBo-2272" value="" style="shape=mxgraph.cisco.modems_and_phones.ip_phone;sketch=0;html=1;pointerEvents=1;dashed=0;fillColor=#036897;strokeColor=#ffffff;strokeWidth=2;verticalLabelPosition=bottom;verticalAlign=top;align=center;outlineConnect=0;" parent="1" vertex="1">
          <mxGeometry x="1470" y="630" width="90" height="50" as="geometry" />
        </mxCell>
        <mxCell id="aqWlvqh8Th-LgJ-SvnBo-2273" value="" style="shape=mxgraph.cisco.modems_and_phones.ip_phone;sketch=0;html=1;pointerEvents=1;dashed=0;fillColor=#036897;strokeColor=#ffffff;strokeWidth=2;verticalLabelPosition=bottom;verticalAlign=top;align=center;outlineConnect=0;" parent="1" vertex="1">
          <mxGeometry x="1090" y="890" width="90" height="50" as="geometry" />
        </mxCell>
        <mxCell id="aqWlvqh8Th-LgJ-SvnBo-2274" value="" style="shape=mxgraph.cisco.computers_and_peripherals.printer;sketch=0;html=1;pointerEvents=1;dashed=0;fillColor=#036897;strokeColor=#ffffff;strokeWidth=2;verticalLabelPosition=bottom;verticalAlign=top;align=center;outlineConnect=0;" parent="1" vertex="1">
          <mxGeometry x="900" y="480" width="91" height="34" as="geometry" />
        </mxCell>
        <mxCell id="aqWlvqh8Th-LgJ-SvnBo-2275" value="" style="shape=mxgraph.cisco.computers_and_peripherals.workstation;sketch=0;html=1;pointerEvents=1;dashed=0;fillColor=#036897;strokeColor=#ffffff;strokeWidth=2;verticalLabelPosition=bottom;verticalAlign=top;align=center;outlineConnect=0;" parent="1" vertex="1">
          <mxGeometry x="1170" y="798" width="83" height="62" as="geometry" />
        </mxCell>
        <mxCell id="aqWlvqh8Th-LgJ-SvnBo-2287" value="" style="shape=mxgraph.cisco.switches.workgroup_switch;html=1;dashed=0;fillColor=#10739E;strokeColor=#ffffff;strokeWidth=2;verticalLabelPosition=bottom;verticalAlign=top;fontFamily=Helvetica;fontSize=36;fontColor=#FFB366" parent="1" vertex="1">
          <mxGeometry x="1098" y="450" width="101" height="50" as="geometry" />
        </mxCell>
        <mxCell id="aqWlvqh8Th-LgJ-SvnBo-2293" value="" style="shape=mxgraph.cisco.routers.router;html=1;dashed=0;fillColor=#10739E;strokeColor=#ffffff;strokeWidth=2;verticalLabelPosition=bottom;verticalAlign=top;fontFamily=Helvetica;fontSize=36;fontColor=#FFB366" parent="1" vertex="1">
          <mxGeometry x="1216" y="277" width="78" height="53" as="geometry" />
        </mxCell>
        <mxCell id="aqWlvqh8Th-LgJ-SvnBo-2296" value="" style="shape=image;html=1;verticalAlign=top;verticalLabelPosition=bottom;labelBackgroundColor=#ffffff;imageAspect=0;aspect=fixed;image=https://cdn2.iconfinder.com/data/icons/boxicons-regular-vol-1/24/bx-cctv-128.png" parent="1" vertex="1">
          <mxGeometry x="1435" y="310" width="70" height="70" as="geometry" />
        </mxCell>
        <mxCell id="6tm259kA43Zo3lNg7x9m-2143" value="" style="endArrow=none;html=1;rounded=0;exitX=1;exitY=0.5;exitDx=0;exitDy=0;exitPerimeter=0;entryX=0;entryY=0.5;entryDx=0;entryDy=0;entryPerimeter=0;" edge="1" parent="1" source="2138" target="aqWlvqh8Th-LgJ-SvnBo-2260">
          <mxGeometry width="50" height="50" relative="1" as="geometry">
            <mxPoint x="1210" y="470" as="sourcePoint" />
            <mxPoint x="1260" y="420" as="targetPoint" />
          </mxGeometry>
        </mxCell>
        <mxCell id="6tm259kA43Zo3lNg7x9m-2144" value="" style="endArrow=none;html=1;rounded=0;entryX=0.5;entryY=1;entryDx=0;entryDy=0;entryPerimeter=0;exitX=0.5;exitY=0;exitDx=0;exitDy=0;exitPerimeter=0;" edge="1" parent="1" source="aqWlvqh8Th-LgJ-SvnBo-2293" target="aqWlvqh8Th-LgJ-SvnBo-2260">
          <mxGeometry width="50" height="50" relative="1" as="geometry">
            <mxPoint x="1250" y="270" as="sourcePoint" />
            <mxPoint x="1260" y="420" as="targetPoint" />
          </mxGeometry>
        </mxCell>
        <mxCell id="6tm259kA43Zo3lNg7x9m-2145" value="" style="endArrow=none;html=1;rounded=0;entryX=0;entryY=0.5;entryDx=0;entryDy=0;entryPerimeter=0;" edge="1" parent="1" source="aqWlvqh8Th-LgJ-SvnBo-2264" target="aqWlvqh8Th-LgJ-SvnBo-2293">
          <mxGeometry width="50" height="50" relative="1" as="geometry">
            <mxPoint x="1210" y="470" as="sourcePoint" />
            <mxPoint x="1260" y="420" as="targetPoint" />
          </mxGeometry>
        </mxCell>
        <mxCell id="6tm259kA43Zo3lNg7x9m-2149" value="" style="endArrow=none;html=1;rounded=0;entryX=0.5;entryY=1;entryDx=0;entryDy=0;entryPerimeter=0;" edge="1" parent="1" source="2115" target="aqWlvqh8Th-LgJ-SvnBo-2293">
          <mxGeometry width="50" height="50" relative="1" as="geometry">
            <mxPoint x="1210" y="670" as="sourcePoint" />
            <mxPoint x="1260" y="620" as="targetPoint" />
          </mxGeometry>
        </mxCell>
        <mxCell id="6tm259kA43Zo3lNg7x9m-2151" value="" style="endArrow=none;html=1;rounded=0;exitX=0.713;exitY=0.32;exitDx=0;exitDy=0;exitPerimeter=0;" edge="1" parent="1" source="aqWlvqh8Th-LgJ-SvnBo-2287" target="aqWlvqh8Th-LgJ-SvnBo-2293">
          <mxGeometry width="50" height="50" relative="1" as="geometry">
            <mxPoint x="1210" y="670" as="sourcePoint" />
            <mxPoint x="1260" y="620" as="targetPoint" />
          </mxGeometry>
        </mxCell>
        <mxCell id="6tm259kA43Zo3lNg7x9m-2152" value="" style="endArrow=none;html=1;rounded=0;entryX=0;entryY=0.5;entryDx=0;entryDy=0;entryPerimeter=0;exitX=0.5;exitY=0;exitDx=0;exitDy=0;exitPerimeter=0;" edge="1" parent="1" source="aqWlvqh8Th-LgJ-SvnBo-2274" target="aqWlvqh8Th-LgJ-SvnBo-2287">
          <mxGeometry width="50" height="50" relative="1" as="geometry">
            <mxPoint x="1210" y="670" as="sourcePoint" />
            <mxPoint x="1260" y="620" as="targetPoint" />
          </mxGeometry>
        </mxCell>
        <mxCell id="6tm259kA43Zo3lNg7x9m-2153" value="" style="endArrow=none;html=1;rounded=0;entryX=0.861;entryY=0.12;entryDx=0;entryDy=0;entryPerimeter=0;exitX=0;exitY=0.75;exitDx=0;exitDy=0;" edge="1" parent="1" source="aqWlvqh8Th-LgJ-SvnBo-2296" target="2115">
          <mxGeometry width="50" height="50" relative="1" as="geometry">
            <mxPoint x="1210" y="670" as="sourcePoint" />
            <mxPoint x="1260" y="620" as="targetPoint" />
          </mxGeometry>
        </mxCell>
        <mxCell id="6tm259kA43Zo3lNg7x9m-2154" value="" style="endArrow=none;html=1;rounded=0;entryX=0;entryY=0.98;entryDx=0;entryDy=0;entryPerimeter=0;exitX=0.755;exitY=0;exitDx=0;exitDy=0;exitPerimeter=0;" edge="1" parent="1" source="aqWlvqh8Th-LgJ-SvnBo-2257" target="aqWlvqh8Th-LgJ-SvnBo-2287">
          <mxGeometry width="50" height="50" relative="1" as="geometry">
            <mxPoint x="1210" y="670" as="sourcePoint" />
            <mxPoint x="1260" y="620" as="targetPoint" />
          </mxGeometry>
        </mxCell>
        <mxCell id="6tm259kA43Zo3lNg7x9m-2155" value="" style="endArrow=none;html=1;rounded=0;entryX=0.248;entryY=0.92;entryDx=0;entryDy=0;entryPerimeter=0;" edge="1" parent="1" source="aqWlvqh8Th-LgJ-SvnBo-2271" target="aqWlvqh8Th-LgJ-SvnBo-2287">
          <mxGeometry width="50" height="50" relative="1" as="geometry">
            <mxPoint x="1210" y="670" as="sourcePoint" />
            <mxPoint x="1260" y="620" as="targetPoint" />
          </mxGeometry>
        </mxCell>
        <mxCell id="6tm259kA43Zo3lNg7x9m-2156" value="" style="endArrow=none;html=1;rounded=0;entryX=0.98;entryY=0.5;entryDx=0;entryDy=0;entryPerimeter=0;" edge="1" parent="1" source="aqWlvqh8Th-LgJ-SvnBo-2263" target="2115">
          <mxGeometry width="50" height="50" relative="1" as="geometry">
            <mxPoint x="1210" y="670" as="sourcePoint" />
            <mxPoint x="1260" y="620" as="targetPoint" />
          </mxGeometry>
        </mxCell>
        <mxCell id="6tm259kA43Zo3lNg7x9m-2158" value="" style="endArrow=none;html=1;rounded=0;entryX=0.87;entryY=0.74;entryDx=0;entryDy=0;entryPerimeter=0;exitX=0.08;exitY=0;exitDx=0;exitDy=0;exitPerimeter=0;" edge="1" parent="1" source="aqWlvqh8Th-LgJ-SvnBo-2268" target="2115">
          <mxGeometry width="50" height="50" relative="1" as="geometry">
            <mxPoint x="1210" y="670" as="sourcePoint" />
            <mxPoint x="1260" y="620" as="targetPoint" />
          </mxGeometry>
        </mxCell>
        <mxCell id="6tm259kA43Zo3lNg7x9m-2159" value="" style="endArrow=none;html=1;rounded=0;exitX=0.055;exitY=0.5;exitDx=0;exitDy=0;exitPerimeter=0;" edge="1" parent="1" source="aqWlvqh8Th-LgJ-SvnBo-2272" target="2115">
          <mxGeometry width="50" height="50" relative="1" as="geometry">
            <mxPoint x="1210" y="670" as="sourcePoint" />
            <mxPoint x="1260" y="620" as="targetPoint" />
          </mxGeometry>
        </mxCell>
        <mxCell id="6tm259kA43Zo3lNg7x9m-2160" value="" style="endArrow=none;html=1;rounded=0;" edge="1" parent="1" source="aqWlvqh8Th-LgJ-SvnBo-2266" target="2115">
          <mxGeometry width="50" height="50" relative="1" as="geometry">
            <mxPoint x="1210" y="670" as="sourcePoint" />
            <mxPoint x="1260" y="620" as="targetPoint" />
          </mxGeometry>
        </mxCell>
        <mxCell id="6tm259kA43Zo3lNg7x9m-2161" value="" style="endArrow=none;html=1;rounded=0;entryX=0.5;entryY=0.98;entryDx=0;entryDy=0;entryPerimeter=0;" edge="1" parent="1" source="aqWlvqh8Th-LgJ-SvnBo-2267" target="aqWlvqh8Th-LgJ-SvnBo-2287">
          <mxGeometry width="50" height="50" relative="1" as="geometry">
            <mxPoint x="1210" y="670" as="sourcePoint" />
            <mxPoint x="1260" y="620" as="targetPoint" />
          </mxGeometry>
        </mxCell>
        <mxCell id="6tm259kA43Zo3lNg7x9m-2164" value="" style="endArrow=none;html=1;rounded=0;entryX=0.723;entryY=1;entryDx=0;entryDy=0;entryPerimeter=0;" edge="1" parent="1" source="aqWlvqh8Th-LgJ-SvnBo-2269" target="aqWlvqh8Th-LgJ-SvnBo-2287">
          <mxGeometry width="50" height="50" relative="1" as="geometry">
            <mxPoint x="1210" y="670" as="sourcePoint" />
            <mxPoint x="1260" y="620" as="targetPoint" />
          </mxGeometry>
        </mxCell>
        <mxCell id="6tm259kA43Zo3lNg7x9m-2165" value="" style="endArrow=none;html=1;rounded=0;entryX=0.327;entryY=1;entryDx=0;entryDy=0;entryPerimeter=0;" edge="1" parent="1" source="aqWlvqh8Th-LgJ-SvnBo-2270" target="2115">
          <mxGeometry width="50" height="50" relative="1" as="geometry">
            <mxPoint x="1400" y="780" as="sourcePoint" />
            <mxPoint x="1260" y="620" as="targetPoint" />
          </mxGeometry>
        </mxCell>
        <mxCell id="6tm259kA43Zo3lNg7x9m-2166" value="" style="endArrow=none;html=1;rounded=0;entryX=0.5;entryY=0.98;entryDx=0;entryDy=0;entryPerimeter=0;" edge="1" parent="1" source="aqWlvqh8Th-LgJ-SvnBo-2258" target="2115">
          <mxGeometry width="50" height="50" relative="1" as="geometry">
            <mxPoint x="1210" y="670" as="sourcePoint" />
            <mxPoint x="1260" y="620" as="targetPoint" />
          </mxGeometry>
        </mxCell>
        <mxCell id="6tm259kA43Zo3lNg7x9m-2168" value="" style="endArrow=none;html=1;rounded=0;entryX=0.87;entryY=0.74;entryDx=0;entryDy=0;entryPerimeter=0;" edge="1" parent="1" source="aqWlvqh8Th-LgJ-SvnBo-2273" target="aqWlvqh8Th-LgJ-SvnBo-2287">
          <mxGeometry width="50" height="50" relative="1" as="geometry">
            <mxPoint x="1210" y="670" as="sourcePoint" />
            <mxPoint x="1260" y="620" as="targetPoint" />
          </mxGeometry>
        </mxCell>
        <mxCell id="6tm259kA43Zo3lNg7x9m-2170" value="" style="endArrow=none;html=1;rounded=0;entryX=0.98;entryY=0.5;entryDx=0;entryDy=0;entryPerimeter=0;exitX=0.5;exitY=0;exitDx=0;exitDy=0;exitPerimeter=0;" edge="1" parent="1" source="aqWlvqh8Th-LgJ-SvnBo-2275" target="aqWlvqh8Th-LgJ-SvnBo-2287">
          <mxGeometry width="50" height="50" relative="1" as="geometry">
            <mxPoint x="1210" y="670" as="sourcePoint" />
            <mxPoint x="1260" y="620" as="targetPoint" />
          </mxGeometry>
        </mxCell>
        <mxCell id="6tm259kA43Zo3lNg7x9m-2175" value="" style="endArrow=none;html=1;rounded=0;entryX=0;entryY=0.5;entryDx=0;entryDy=0;entryPerimeter=0;exitX=0.861;exitY=0.48;exitDx=0;exitDy=0;exitPerimeter=0;" edge="1" parent="1" source="aqWlvqh8Th-LgJ-SvnBo-2287" target="2115">
          <mxGeometry width="50" height="50" relative="1" as="geometry">
            <mxPoint x="1210" y="470" as="sourcePoint" />
            <mxPoint x="1260" y="420" as="targetPoint" />
          </mxGeometry>
        </mxCell>
      </root>
    </mxGraphModel>
  </diagram>
</mxfile>
